<svg width="17" height="17" viewBox="0 0 17 17" fill="none" xmlns="http://www.w3.org/2000/svg">
<path fill-rule="evenodd" clip-rule="evenodd" d="M2.26113 13.2395C4.98411 15.9751 9.23515 16.2399 12.254 14.034L15.2064 17L17 15.1981L14.0347 12.2192C16.1599 9.1925 15.8746 4.97974 13.1788 2.27155C10.164 -0.757182 5.27596 -0.757182 2.26113 2.27155C-0.753709 5.30028 -0.753709 10.2108 2.26113 13.2395ZM11.6191 3.83841C13.7726 6.00179 13.7726 9.50932 11.6191 11.6727C9.46569 13.8361 5.97425 13.8361 3.8208 11.6727C1.66734 9.50932 1.66734 6.00179 3.8208 3.83841C5.97425 1.67504 9.46569 1.67504 11.6191 3.83841Z" fill="white"/>
</svg>
